<svg width="24" height="24" viewBox="0 0 24 24" fill="none" xmlns="http://www.w3.org/2000/svg">
<path d="M18.79 7.49192C19.0825 7.49192 19.3197 7.25478 19.3197 6.96221V2.28913C19.3197 1.52307 18.6966 0.9 17.9305 0.9H2.28913C1.52307 0.9 0.9 1.52307 0.9 2.28913V21.712C0.9 22.478 1.52307 23.1011 2.28913 23.1011H17.9305C18.6966 23.1011 19.3197 22.478 19.3197 21.712V18.5462C19.3197 18.2537 19.0825 18.0165 18.79 18.0165C18.4974 18.0165 18.2602 18.2537 18.2602 18.5462V21.712C18.2602 21.8937 18.1122 22.0417 17.9305 22.0417H2.28913C2.10741 22.0417 1.95942 21.8937 1.95942 21.712V2.28913C1.95942 2.10741 2.10741 1.95942 2.28913 1.95942H17.9305C18.1122 1.95942 18.2602 2.10741 18.2602 2.28913V6.96221C18.2602 7.25478 18.4974 7.49192 18.79 7.49192Z" fill="#8C8C8C" stroke="#8C8C8C" stroke-width="0.2"/>
<path d="M10.1096 3.21982C7.87447 3.21982 6.05625 5.03805 6.05625 7.27315C6.05625 8.43168 6.545 9.47808 7.3265 10.2172C7.34208 10.2337 7.35925 10.2501 7.37843 10.2656C8.09928 10.924 9.05832 11.3264 10.1095 11.3264C11.1607 11.3264 12.1198 10.924 12.8406 10.2656C12.8599 10.25 12.877 10.2336 12.8925 10.2173C13.6741 9.47812 14.1629 8.4317 14.1629 7.27315C14.1629 5.03805 12.3447 3.21982 10.1096 3.21982ZM10.1096 10.2671C9.46246 10.2671 8.86302 10.0604 8.37281 9.70993C8.74207 9.11595 9.38963 8.74822 10.1096 8.74822C10.8295 8.74822 11.4771 9.11595 11.8463 9.70993C11.3561 10.0604 10.7567 10.2671 10.1096 10.2671ZM9.52203 7.10126V6.82195C9.52203 6.49809 9.78571 6.23442 10.1096 6.23442C10.4334 6.23442 10.6971 6.49809 10.6971 6.82195V7.10126C10.6971 7.42512 10.4334 7.6888 10.1096 7.6888C9.78571 7.6888 9.52203 7.42512 9.52203 7.10126ZM13.1035 7.27315C13.1035 7.8872 12.9175 8.45831 12.599 8.93393C12.3043 8.53774 11.9221 8.22108 11.4846 8.00629C11.6562 7.74649 11.7565 7.43541 11.7565 7.10126V6.82195C11.7565 5.91371 11.0178 5.175 10.1096 5.175C9.20132 5.175 8.46262 5.91371 8.46262 6.82195V7.10126C8.46262 7.43541 8.56294 7.74649 8.73457 8.00629C8.29708 8.22108 7.91479 8.53774 7.62012 8.93393C7.30167 8.45831 7.11567 7.8872 7.11567 7.27315C7.11567 5.62239 8.45881 4.27924 10.1096 4.27924C11.7603 4.27924 13.1035 5.62239 13.1035 7.27315Z" fill="#8C8C8C" stroke="#8C8C8C" stroke-width="0.2"/>
<path d="M12.4303 19.7207H10.1099C9.81738 19.7207 9.58018 19.9578 9.58018 20.2504C9.58018 20.543 9.81738 20.7801 10.1099 20.7801H12.4303C12.7228 20.7801 12.96 20.543 12.96 20.2504C12.96 19.9578 12.7228 19.7207 12.4303 19.7207Z" fill="#8C8C8C" stroke="#8C8C8C" stroke-width="0.2"/>
<path d="M12.43 17.3143H6.32815C6.03564 17.3143 5.79844 17.5515 5.79844 17.844C5.79844 18.1366 6.03564 18.3737 6.32815 18.3737H12.43C12.7225 18.3737 12.9597 18.1366 12.9597 17.844C12.9597 17.5515 12.7225 17.3143 12.43 17.3143Z" fill="#8C8C8C" stroke="#8C8C8C" stroke-width="0.2"/>
<path d="M12.43 14.9079H6.32815C6.03564 14.9079 5.79844 15.1451 5.79844 15.4376C5.79844 15.7302 6.03564 15.9674 6.32815 15.9674H12.43C12.7225 15.9674 12.9597 15.7302 12.9597 15.4376C12.9597 15.1451 12.7225 14.9079 12.43 14.9079Z" fill="#8C8C8C" stroke="#8C8C8C" stroke-width="0.2"/>
<path d="M4.11788 13.406L4.11771 13.4058C4.01898 13.3071 3.9625 13.1708 3.9625 13.0313C3.9625 12.8917 4.01903 12.7554 4.11768 12.6568L4.11788 13.406ZM4.11788 13.406C4.21677 13.5043 4.35244 13.561 4.49221 13.561C4.63231 13.561 4.76804 13.5044 4.86694 13.406L4.86711 13.4058L4.11788 13.406ZM4.49221 12.5016C4.63213 12.5016 4.76843 12.558 4.86709 12.6567C4.8671 12.6567 4.86712 12.6568 4.86713 12.6568L4.7964 12.7275L4.49221 12.5016ZM4.49221 12.5016C4.35261 12.5016 4.21632 12.5581 4.11769 12.6568L4.49221 12.5016Z" fill="#8C8C8C" stroke="#8C8C8C" stroke-width="0.2"/>
<path d="M4.86709 15.0631L4.86694 15.063C4.76804 14.9645 4.63231 14.9079 4.49221 14.9079C4.35244 14.9079 4.21677 14.9646 4.11788 15.0629L4.11788 15.0629L4.11769 15.0631C4.01904 15.1618 3.9625 15.2981 3.9625 15.4376C3.9625 15.5772 4.01898 15.7135 4.11771 15.8122L4.11788 15.8123C4.21677 15.9107 4.35244 15.9674 4.49221 15.9674C4.63231 15.9674 4.76804 15.9108 4.86694 15.8123L4.86711 15.8122C4.96575 15.7135 5.02235 15.5772 5.02235 15.4376C5.02235 15.2981 4.9658 15.1618 4.86709 15.0631Z" fill="#8C8C8C" stroke="#8C8C8C" stroke-width="0.2"/>
<path d="M4.86694 17.4693L4.86709 17.4695C4.9658 17.5681 5.02235 17.7044 5.02235 17.844C5.02235 17.9836 4.96575 18.1199 4.86713 18.2185L4.86694 17.4693ZM4.86694 17.4693C4.76804 17.3709 4.63231 17.3143 4.49221 17.3143C4.35244 17.3143 4.21677 17.371 4.11788 17.4693L4.11788 17.4693M4.86694 17.4693L4.11788 17.4693M4.11788 17.4693L4.11769 17.4695L4.11788 17.4693ZM4.1884 18.1478C4.10844 18.0679 4.0625 17.957 4.0625 17.844C4.0625 17.731 4.10848 17.6201 4.1884 17.5402L4.86711 18.2185C4.76845 18.3172 4.63214 18.3737 4.49221 18.3737C4.35262 18.3737 4.21634 18.3172 4.11771 18.2185C4.1177 18.2185 4.11769 18.2185 4.11768 18.2185L4.1884 18.1478ZM4.1884 18.1478C4.26829 18.2277 4.37915 18.2737 4.49221 18.2737C4.60565 18.2737 4.71652 18.2277 4.7964 18.1478H4.1884Z" fill="#8C8C8C" stroke="#8C8C8C" stroke-width="0.2"/>
<path d="M12.43 12.5016H6.32815C6.03564 12.5016 5.79844 12.7387 5.79844 13.0313C5.79844 13.3238 6.03564 13.561 6.32815 13.561H12.43C12.7225 13.561 12.9597 13.3238 12.9597 13.0313C12.9597 12.7387 12.7225 12.5016 12.43 12.5016Z" fill="#8C8C8C" stroke="#8C8C8C" stroke-width="0.2"/>
<path d="M20.7028 6.32248L20.7028 6.32247C21.1942 6.19087 21.7078 6.25849 22.1482 6.51277L22.0982 6.59937L22.1482 6.51277C23.0579 7.03799 23.3706 8.20513 22.8454 9.11478L17.4379 18.4808C17.4379 18.4808 17.4379 18.4808 17.4379 18.4808C17.4014 18.5442 17.3521 18.5992 17.2933 18.6425L20.7028 6.32248ZM20.7028 6.32248C20.2116 6.45413 19.8005 6.76953 19.5463 7.20996C19.5463 7.20997 19.5463 7.20997 19.5463 7.20997L14.1387 16.576L14.1387 16.5761C14.1022 16.6393 14.0791 16.7095 14.071 16.7821L13.6904 20.1916L13.6904 20.1916C13.6671 20.4007 13.7697 20.6039 13.9519 20.7091L13.952 20.7091C14.0342 20.7566 14.1256 20.7801 14.2168 20.7801C14.3275 20.7801 14.4379 20.7454 14.5309 20.6769C14.5309 20.6769 14.5309 20.6769 14.5309 20.6769L17.2933 18.6425L20.7028 6.32248ZM20.977 7.34581L20.977 7.34581C21.1954 7.28728 21.4228 7.31728 21.6185 7.43027L21.6185 7.43028C21.8142 7.54326 21.9538 7.72527 22.0123 7.94356C22.0708 8.16185 22.0409 8.38933 21.9279 8.58503L21.5544 9.23207L20.0902 8.38671L20.4637 7.73967L20.3771 7.68967L20.4637 7.73967C20.5767 7.54396 20.7587 7.40431 20.977 7.34581ZM14.8776 19.1059L15.034 17.7046L16.0129 18.2698L14.8776 19.1059ZM16.7853 17.4924L15.3211 16.647L19.5605 9.30417L21.0247 10.1495L16.7853 17.4924Z" fill="#8C8C8C" stroke="#8C8C8C" stroke-width="0.2"/>
</svg>
