<svg width="24" height="24" viewBox="0 0 24 24" fill="none" xmlns="http://www.w3.org/2000/svg">
<path d="M23.2969 11.2969H22.8702V11.2469C22.8702 9.49109 21.8835 8.08044 20.5979 7.35699C21.2975 6.74451 21.7407 5.84601 21.7407 4.84534C21.7407 3.00421 20.2427 1.50623 18.4016 1.50623C16.5604 1.50623 15.0624 3.00421 15.0624 4.84534C15.0624 5.84601 15.5056 6.74451 16.205 7.35699C14.9165 8.08173 13.9329 9.49585 13.9329 11.2469V11.2969H7.71149C7.06567 10.8239 6.27026 10.5438 5.41022 10.5438C3.25763 10.5438 1.50623 12.295 1.50623 14.4478C1.50623 15.7158 2.11432 16.8442 3.05402 17.5578C1.24255 18.4858 0 20.3725 0 22.5438V23.2969C0 23.6852 0.314758 24 0.703125 24H10.4938C10.8821 24 11.1969 23.6852 11.1969 23.2969V22.5438C11.1969 22.004 11.1198 21.4818 10.9766 20.9875H22.5938V21.7906C22.5938 22.1788 22.9085 22.4938 23.2969 22.4938C23.6852 22.4938 24 22.1788 24 21.7906V12C24 11.6116 23.6852 11.2969 23.2969 11.2969ZM16.4687 4.84534C16.4687 3.77966 17.3357 2.91248 18.4016 2.91248C19.4672 2.91248 20.3344 3.77966 20.3344 4.84534C20.3344 5.91101 19.4674 6.7782 18.4016 6.7782C17.3359 6.7782 16.4687 5.91101 16.4687 4.84534ZM15.3391 11.2469C15.3391 9.52881 16.7379 8.18445 18.4016 8.18445C20.0605 8.18445 21.464 9.52386 21.464 11.2469V11.2969H15.3391V11.2469ZM5.41022 11.95C6.78735 11.95 7.90778 13.0704 7.90778 14.4478C7.90778 15.8249 6.78735 16.9453 5.41022 16.9453C4.0329 16.9453 2.91248 15.8249 2.91248 14.4478C2.91248 13.0704 4.0329 11.95 5.41022 11.95ZM9.79065 22.5938H1.40625V22.5438C1.40625 20.2322 3.28693 18.3516 5.59845 18.3516C7.90997 18.3516 9.79065 20.2322 9.79065 22.5438V22.5938ZM7.90869 17.4445C8.76691 16.7278 9.31403 15.6506 9.31403 14.4478C9.31403 13.8208 9.16479 13.2286 8.90112 12.7031H22.5938V19.5813H10.3467C9.76392 18.6508 8.91577 17.9026 7.90869 17.4445Z" fill="#8C8C8C"/>
<path d="M2.586 9.31403H12.7531C13.3134 9.31403 13.6494 8.68781 13.3381 8.22089L11.95 6.13879V2.586C11.95 1.16858 10.8065 0 9.36401 0H2.586C1.15118 0 0 1.16144 0 2.586V6.72821C0 8.14948 1.14697 9.31403 2.586 9.31403ZM1.40625 2.586C1.40625 1.94238 1.92407 1.40625 2.586 1.40625H9.36401C10.0193 1.40625 10.5438 1.93359 10.5438 2.586V6.35156C10.5438 6.49036 10.5848 6.62604 10.6619 6.74158L11.4393 7.90778H2.586C1.93066 7.90778 1.40625 7.38043 1.40625 6.72803V2.586Z" fill="#8C8C8C"/>
<path d="M3.71558 4.04224H8.23444C8.62262 4.04224 8.93756 3.72729 8.93756 3.33911C8.93756 2.95074 8.62262 2.63599 8.23444 2.63599H3.71558C3.32739 2.63599 3.01245 2.95074 3.01245 3.33911C3.01245 3.72729 3.32721 4.04224 3.71558 4.04224Z" fill="#8C8C8C"/>
<path d="M3.71558 6.67822H5.9751C6.36328 6.67822 6.67822 6.36328 6.67822 5.9751C6.67822 5.58673 6.36328 5.27197 5.9751 5.27197H3.71558C3.32739 5.27197 3.01245 5.58673 3.01245 5.9751C3.01245 6.36328 3.32721 6.67822 3.71558 6.67822Z" fill="#8C8C8C"/>
</svg>
