<svg width="24" height="24" viewBox="0 0 24 24" fill="none" xmlns="http://www.w3.org/2000/svg">
<circle cx="12" cy="12" r="12" fill="white"/>
<circle cx="12" cy="12" r="12" fill="#E0E0E0"/>
<mask id="mask0" mask-type="alpha" maskUnits="userSpaceOnUse" x="0" y="0" width="24" height="24">
<circle cx="12" cy="12" r="12" fill="white"/>
</mask>
<g mask="url(#mask0)">
<path d="M11.6825 13.4267C13.0326 13.4267 14.2016 12.9425 15.1567 11.9872C16.1119 11.032 16.5961 9.86333 16.5961 8.51317C16.5961 7.16347 16.1119 5.99463 15.1566 5.03916C14.2012 4.08417 13.0324 3.59998 11.6825 3.59998C10.3324 3.59998 9.1637 4.08417 8.20854 5.03932C7.25339 5.99447 6.76904 7.16332 6.76904 8.51317C6.76904 9.86333 7.25339 11.0322 8.2087 11.9873C9.16401 12.9423 10.3329 13.4267 11.6825 13.4267Z" fill="#8C8C8C"/>
<path d="M20.28 19.2863C20.2524 18.8888 20.1967 18.4552 20.1147 17.9973C20.0319 17.536 19.9253 17.0999 19.7976 16.7013C19.6658 16.2894 19.4865 15.8825 19.2649 15.4927C19.0348 15.088 18.7647 14.7356 18.4615 14.4457C18.1444 14.1423 17.7563 13.8985 17.3074 13.7206C16.8601 13.5436 16.3644 13.454 15.8341 13.454C15.6259 13.454 15.4245 13.5394 15.0356 13.7926C14.7962 13.9487 14.5162 14.1293 14.2037 14.329C13.9364 14.4992 13.5744 14.6587 13.1273 14.8032C12.691 14.9443 12.2481 15.0159 11.8109 15.0159C11.3737 15.0159 10.9309 14.9443 10.4942 14.8032C10.0475 14.6589 9.68549 14.4994 9.41857 14.3291C9.10901 14.1313 8.82886 13.9507 8.58591 13.7925C8.19743 13.5392 7.99588 13.4538 7.78764 13.4538C7.25722 13.4538 6.76167 13.5436 6.31452 13.7207C5.86597 13.8983 5.47765 14.1422 5.1603 14.4458C4.85728 14.7359 4.58693 15.0882 4.35721 15.4927C4.13574 15.8825 3.95644 16.2892 3.82446 16.7015C3.69699 17.1001 3.59038 17.536 3.50758 17.9973C3.42556 18.4546 3.36984 18.8884 3.34229 19.2868C3.31521 19.6772 3.30151 20.0823 3.30151 20.4915C3.30151 21.5563 3.64003 22.4184 4.30756 23.0542C4.96685 23.6816 5.8392 23.9999 6.90003 23.9999H16.7227C17.7835 23.9999 18.6556 23.6817 19.315 23.0542C19.9827 22.4189 20.3212 21.5566 20.3212 20.4913C20.321 20.0803 20.3072 19.6748 20.28 19.2863Z" fill="#8C8C8C"/>
</g>
</svg>
