<?xml version="1.0" encoding="UTF-8" standalone="no"?> <svg width="60" height="60" viewBox="0 0 60 60" fill="none" xmlns="http://www.w3.org/2000/svg">
<path d="M30.8369 58.3398C30.6418 58.34 30.4509 58.283 30.2878 58.176C30.1247 58.0689 29.9964 57.9165 29.9189 57.7375C29.8413 57.5584 29.8178 57.3606 29.8513 57.1684C29.8848 56.9762 29.9739 56.798 30.1074 56.6558L37.79 48.4653C38.279 47.9458 38.869 47.5315 39.5237 47.248C40.1784 46.9645 40.8841 46.8176 41.5976 46.8164H54.7793C55.6331 46.8155 56.4518 46.476 57.0555 45.8723C57.6593 45.2686 57.999 44.45 58 43.5962V6.88037C57.999 6.02654 57.6593 5.20797 57.0555 4.60427C56.4517 4.00057 55.6331 3.66103 54.7793 3.66016H5.2207C4.36687 3.66103 3.54825 4.00057 2.94446 4.60427C2.34066 5.20797 2.001 6.02654 2 6.88037V43.5962C2.001 44.45 2.34066 45.2686 2.94446 45.8723C3.54825 46.476 4.36687 46.8155 5.2207 46.8164H20.0644C20.7772 46.8175 21.4823 46.9641 22.1365 47.2471C22.7907 47.5301 23.3803 47.9437 23.8691 48.4624L28.4619 53.3516C28.5527 53.4471 28.6237 53.5596 28.6708 53.6826C28.7179 53.8056 28.7403 53.9368 28.7366 54.0685C28.7328 54.2002 28.7031 54.3299 28.6491 54.45C28.5951 54.5702 28.5179 54.6785 28.4219 54.7688C28.3258 54.859 28.2129 54.9293 28.0896 54.9758C27.9663 55.0222 27.8351 55.0438 27.7034 55.0394C27.5717 55.0349 27.4422 55.0044 27.3223 54.9498C27.2025 54.8951 27.0946 54.8172 27.0049 54.7207L22.4121 49.8315C22.1104 49.5116 21.7466 49.2566 21.3429 49.082C20.9393 48.9075 20.5043 48.8171 20.0645 48.8164H5.2207C3.83662 48.8149 2.50964 48.2645 1.5309 47.2859C0.55216 46.3072 0.00159616 44.9803 0 43.5962L0 6.88037C0.00159881 5.49629 0.552164 4.16936 1.5309 3.19071C2.50964 2.21207 3.83662 1.66163 5.2207 1.66016H54.7793C56.1634 1.66163 57.4904 2.21207 58.4691 3.19071C59.4478 4.16936 59.9984 5.49629 60 6.88037V43.5962C59.9984 44.9803 59.4478 46.3072 58.4691 47.2858C57.4904 48.2645 56.1634 48.8149 54.7793 48.8164H41.5977C41.1575 48.817 40.7222 48.9076 40.3183 49.0825C39.9145 49.2574 39.5506 49.5129 39.249 49.8335L31.5664 58.0239C31.4729 58.1238 31.36 58.2033 31.2345 58.2577C31.109 58.312 30.9737 58.34 30.8369 58.3398ZM31 34.8433V29.0586C32.3326 28.867 33.582 28.2963 34.5994 27.4147C35.6169 26.533 36.3594 25.3775 36.7387 24.0858C37.118 22.794 37.118 21.4205 36.7387 20.1287C36.3594 18.837 35.6168 17.6815 34.5994 16.7998C33.5819 15.9182 32.3325 15.3476 31 15.156C29.6674 14.9643 28.3078 15.1598 27.0832 15.719C25.8585 16.2782 24.8204 17.1777 24.0925 18.3102C23.3646 19.4428 22.9776 20.7606 22.9775 22.1069C22.9775 22.3721 23.0829 22.6265 23.2704 22.814C23.458 23.0016 23.7123 23.1069 23.9775 23.1069C24.2428 23.1069 24.4971 23.0016 24.6846 22.814C24.8722 22.6265 24.9775 22.3721 24.9775 22.1069C24.9775 21.1136 25.2721 20.1425 25.824 19.3166C26.3759 18.4907 27.1603 17.8469 28.078 17.4668C28.9957 17.0866 30.0056 16.9872 30.9798 17.181C31.9541 17.3748 32.849 17.8531 33.5514 18.5555C34.2538 19.2579 34.7322 20.1528 34.926 21.1271C35.1197 22.1014 35.0203 23.1112 34.6401 24.0289C34.26 24.9467 33.6163 25.7311 32.7903 26.2829C31.9644 26.8348 30.9933 27.1294 30 27.1294C29.8687 27.1294 29.7386 27.1552 29.6173 27.2054C29.4959 27.2557 29.3857 27.3293 29.2928 27.4222C29.2 27.5151 29.1263 27.6253 29.0761 27.7467C29.0258 27.868 29 27.9981 29 28.1294V34.8433C29 35.1085 29.1054 35.3628 29.2929 35.5504C29.4804 35.7379 29.7348 35.8433 30 35.8433C30.2652 35.8433 30.5196 35.7379 30.7071 35.5504C30.8946 35.3628 31 35.1085 31 34.8433ZM30 38.6478C29.8022 38.6478 29.6089 38.7064 29.4444 38.8163C29.28 38.9262 29.1518 39.0824 29.0761 39.2651C29.0004 39.4478 28.9806 39.6489 29.0192 39.8429C29.0578 40.0368 29.153 40.215 29.2929 40.3549C29.4327 40.4947 29.6109 40.59 29.8049 40.6286C29.9989 40.6671 30.2 40.6473 30.3827 40.5717C30.5654 40.496 30.7216 40.3678 30.8315 40.2033C30.9414 40.0389 31 39.8456 31 39.6478C31 39.3826 30.8946 39.1282 30.7071 38.9407C30.5196 38.7531 30.2652 38.6478 30 38.6478Z" fill="black"/>
</svg>
