<svg width="24" height="24" viewBox="0 0 24 24" fill="none" xmlns="http://www.w3.org/2000/svg">
<path d="M14.8125 6.02344C15.2008 6.02344 15.5156 5.70862 15.5156 5.32031C15.5156 4.93261 15.831 4.61719 16.2188 4.61719C16.6065 4.61719 16.9219 4.93261 16.9219 5.32031C16.9219 5.57062 16.787 5.8042 16.5698 5.92978C15.9195 6.30595 15.5156 7.00589 15.5156 7.75655C15.5156 8.14486 15.8304 8.45967 16.2188 8.45967C16.6071 8.45967 16.9219 8.14486 16.9219 7.75655C16.9219 7.50623 17.0568 7.2727 17.274 7.14708C17.9242 6.77091 18.3281 6.07097 18.3281 5.32031C18.3281 4.1572 17.3819 3.21094 16.2188 3.21094C15.0556 3.21094 14.1094 4.1572 14.1094 5.32031C14.1094 5.70862 14.4242 6.02344 14.8125 6.02344Z" fill="#8C8C8C"/>
<path d="M16.2188 10.9453C16.6071 10.9453 16.9219 10.6305 16.9219 10.2422C16.9219 9.85386 16.6071 9.53906 16.2188 9.53906C15.8304 9.53906 15.5156 9.85386 15.5156 10.2422C15.5156 10.6305 15.8304 10.9453 16.2188 10.9453Z" fill="#8C8C8C"/>
<path d="M23.2969 0.398438H9.1875C8.79919 0.398438 8.48438 0.71325 8.48438 1.10156V9.53906H0.703125C0.314812 9.53906 0 9.85388 0 10.2422V22.8984C0 23.2868 0.314812 23.6016 0.703125 23.6016C1.09144 23.6016 1.40625 23.2868 1.40625 22.8984C1.40625 22.5107 1.72167 22.1953 2.10938 22.1953H14.8125C15.2008 22.1953 15.5156 21.8805 15.5156 21.4922V13.7578H21.8906C22.2783 13.7578 22.5938 14.0732 22.5938 14.4609C22.5938 14.8492 22.9086 15.1641 23.2969 15.1641C23.6852 15.1641 24 14.8492 24 14.4609V1.10156C24 0.71325 23.6852 0.398438 23.2969 0.398438ZM14.1094 20.7891H2.10938C1.86295 20.7891 1.62623 20.8315 1.40625 20.9095V10.9453H8.48438V12.3516H3.51562C3.12731 12.3516 2.8125 12.6664 2.8125 13.0547C2.8125 13.443 3.12731 13.7578 3.51562 13.7578H14.1094V20.7891ZM22.5938 12.472C22.3738 12.394 22.137 12.3516 21.8906 12.3516H9.89062V1.80469H22.5938V12.472Z" fill="#8C8C8C"/>
<path d="M12 17.9766H3.51562C3.12731 17.9766 2.8125 18.2914 2.8125 18.6797C2.8125 19.068 3.12731 19.3828 3.51562 19.3828H12C12.3883 19.3828 12.7031 19.068 12.7031 18.6797C12.7031 18.2914 12.3883 17.9766 12 17.9766Z" fill="#8C8C8C"/>
<path d="M2.8125 15.8672C2.8125 16.2555 3.12731 16.5703 3.51562 16.5703H12C12.3883 16.5703 12.7031 16.2555 12.7031 15.8672C12.7031 15.4789 12.3883 15.1641 12 15.1641H3.51562C3.12731 15.1641 2.8125 15.4789 2.8125 15.8672Z" fill="#8C8C8C"/>
</svg>
