<svg width="24" height="24" viewBox="0 0 24 24" fill="none" xmlns="http://www.w3.org/2000/svg">
<path d="M12.3977 2.03322L12.3977 2.03321C12.1611 1.8556 11.8389 1.85559 11.6024 2.03322L1.17396 9.86112L1.17395 9.86112C0.875276 10.0854 0.811376 10.5135 1.02908 10.8183C1.24782 11.1245 1.66923 11.1921 1.9694 10.9668L1.9694 10.9668L12 3.43737L22.0306 10.9667C22.1501 11.0565 22.2895 11.1 22.4279 11.1C22.6354 11.1 22.8397 11.002 22.9709 10.8182C23.1886 10.5135 23.1247 10.0853 22.8261 9.86112L22.766 9.94109L22.8261 9.86112L12.3977 2.03322Z" fill="#8C8C8C" stroke="#8C8C8C" stroke-width="0.2"/>
<path d="M12.75 11.5817C19.75 11.2315 20.0425 10.9502 20.4 10.9502C20.7575 10.9502 21.0499 11.2315 21.05 11.5818V21.4188C21.05 21.769 20.7575 22.0502 20.4 22.0502H14.4002C14.0597 22.0502 13.7789 21.795 13.7527 21.4682C13.7512 21.4532 13.7502 21.4371 13.7502 21.4188V15.785C13.7502 14.8521 12.9665 14.0904 12 14.0904C11.0335 14.0904 10.2498 14.8521 10.2498 15.785V21.4188L19.75 11.5817ZM19.75 11.5817V20.7872M19.75 11.5817V20.7872M19.75 20.7872H15.0502V15.785C15.0502 14.1526 13.6804 12.8274 12 12.8274C10.3196 12.8274 8.94983 14.1527 8.94983 15.785V20.7873H4.24998V11.5818C4.24998 11.2315 3.95743 10.9503 3.59999 10.9503C3.24255 10.9503 2.95 11.2315 2.95 11.5818V21.4188C2.95 21.769 3.24255 22.0502 3.59999 22.0502H9.59982C9.94016 22.0502 10.2209 21.7953 10.2473 21.4687L19.75 20.7872Z" fill="#8C8C8C" stroke="#8C8C8C" stroke-width="0.1"/>
</svg>
