<svg width="24" height="24" viewBox="0 0 24 24" fill="none" xmlns="http://www.w3.org/2000/svg">
  <path
    d="M23.3013 4.26581C23.2998 4.26581 23.2983 4.26562 23.2969 4.26562H16.9219V3.5625C16.9219 2.39941 15.9756 1.45312 14.8125 1.45312H9.1875C8.02441 1.45312 7.07812 2.39941 7.07812 3.5625V4.26562H0.703125C0.311646 4.26562 0 4.58643 0 4.96875V20.4375C0 21.6006 0.946289 22.5469 2.10938 22.5469H21.8906C23.0537 22.5469 24 21.6006 24 20.4375V4.98358C24 4.98267 24 4.98175 24 4.98083C23.9731 4.51904 23.6891 4.26837 23.3013 4.26581ZM8.48438 3.5625C8.48438 3.17487 8.79987 2.85938 9.1875 2.85938H14.8125C15.2001 2.85938 15.5156 3.17487 15.5156 3.5625V4.26562H8.48438V3.5625ZM22.3213 5.67188L20.1378 12.2223C20.042 12.5099 19.7739 12.7031 19.4709 12.7031H15.5156V12C15.5156 11.6116 15.2009 11.2969 14.8125 11.2969H9.1875C8.79913 11.2969 8.48438 11.6116 8.48438 12V12.7031H4.52911C4.22607 12.7031 3.95801 12.5099 3.86224 12.2223L1.67871 5.67188H22.3213ZM14.1094 12.7031V14.1094H9.89062V12.7031H14.1094ZM22.5938 20.4375C22.5938 20.8251 22.2783 21.1406 21.8906 21.1406H2.10938C1.72174 21.1406 1.40625 20.8251 1.40625 20.4375V9.30157L2.52814 12.6671C2.81561 13.5298 3.61981 14.1094 4.52911 14.1094H8.48438V14.8125C8.48438 15.2009 8.79913 15.5156 9.1875 15.5156H14.8125C15.2009 15.5156 15.5156 15.2009 15.5156 14.8125V14.1094H19.4709C20.3802 14.1094 21.1844 13.5298 21.4719 12.6671L22.5938 9.30157V20.4375Z"
    fill="#8C8C8C"/>
</svg>
