<svg width="24" height="24" viewBox="0 0 24 24" fill="none" xmlns="http://www.w3.org/2000/svg">
<path d="M11.4248 10.1097H5.79234C4.93025 10.1097 4.2291 10.8109 4.2291 11.673V15.5587C4.2291 16.4208 4.93025 17.122 5.79234 17.122H11.4248C12.2869 17.122 12.9881 16.4208 12.9881 15.5587V11.673C12.9881 10.8109 12.2869 10.1097 11.4248 10.1097ZM11.9147 15.5587C11.9147 15.8287 11.6949 16.0486 11.4248 16.0486H5.79234C5.52232 16.0486 5.30247 15.8287 5.30247 15.5587V11.673C5.30247 11.4029 5.52232 11.1831 5.79234 11.1831H11.4248C11.6949 11.1831 11.9147 11.4029 11.9147 11.673V15.5587Z" fill="#8C8C8C" stroke="#8C8C8C" stroke-width="0.2"/>
<path d="M9.40656 13.2376L8.24682 12.568C8.11171 12.49 7.94525 12.49 7.81014 12.568C7.67503 12.646 7.5918 12.7902 7.5918 12.9462V14.2854C7.5918 14.4413 7.67503 14.5855 7.81014 14.6635C7.87769 14.7026 7.95306 14.722 8.02848 14.722C8.10389 14.722 8.17927 14.7026 8.24682 14.6635L9.40656 13.994C9.54167 13.916 9.6249 13.7718 9.6249 13.6158C9.6249 13.4598 9.54167 13.3156 9.40656 13.2376Z" fill="#8C8C8C"/>
<path d="M17.5137 2.00497L17.5137 2.00497C17.3728 1.93168 17.2052 1.93168 17.0643 2.00497L17.0643 2.00497L11.611 4.84341L11.6341 4.88776L11.611 4.84341C11.45 4.92721 11.349 5.09361 11.349 5.2751C11.349 5.45658 11.45 5.62298 11.611 5.70678L11.6341 5.66243L11.611 5.70679L13.6838 6.78571V7.62685H4.96928C3.32839 7.62685 1.99351 8.96173 1.99351 10.6026V18.6312H1.25748C0.988733 18.6312 0.770801 18.8492 0.770801 19.1179C0.770801 20.7348 2.08607 22.05 3.7029 22.05H17.9387C19.5556 22.05 20.8708 20.7348 20.8708 19.1179C20.8708 18.8492 20.6529 18.6312 20.3842 18.6312H19.6481V10.6026C19.6481 10.5519 19.6464 10.5015 19.6437 10.4514L20.5977 10.0462C20.7774 9.96988 20.8941 9.79351 20.8941 9.59825V6.7857L22.2556 6.07705V8.66729C22.2556 8.93604 22.4735 9.15397 22.7422 9.15397C23.011 9.15397 23.2289 8.93604 23.2289 8.66729V5.2751C23.2289 5.09357 23.1279 4.92717 22.9669 4.84341L17.5137 2.00497ZM17.0988 11.3708L17.0988 11.3708C17.1595 11.3966 17.2243 11.4095 17.289 11.4095C17.3537 11.4095 17.4185 11.3966 17.4792 11.3708L17.4792 11.3708L18.6748 10.863V18.6312H12.7859C12.5171 18.6312 12.2992 18.8492 12.2992 19.1179C12.2992 19.3867 12.5171 19.6046 12.7859 19.6046H19.8363C19.6193 20.45 18.8507 21.0767 17.9387 21.0767H3.7029C2.79094 21.0767 2.02236 20.45 1.80537 19.6046H8.85575C9.1245 19.6046 9.34244 19.3867 9.34244 19.1179C9.34244 18.8492 9.1245 18.6312 8.85575 18.6312H2.96688V10.6026C2.96688 9.49853 3.86519 8.60021 4.96928 8.60021H13.6838V9.59825C13.6838 9.7935 13.8005 9.96988 13.9803 10.0462C13.9803 10.0462 13.9803 10.0462 13.9803 10.0462L17.0988 11.3708ZM17.5137 8.54522L17.4906 8.50087L17.5137 8.54522L19.9208 7.29234V9.27621L17.289 10.3941L14.6572 9.27621V7.29234L17.0643 8.54522L17.0874 8.50087L17.0643 8.54522C17.1347 8.58186 17.2119 8.60021 17.289 8.60021C17.3661 8.60021 17.4433 8.58186 17.5137 8.54522ZM17.289 2.9853L21.6881 5.2751L17.289 7.56485L12.8898 5.2751L17.289 2.9853Z" fill="#8C8C8C" stroke="#8C8C8C" stroke-width="0.1"/>
<path d="M17.2887 4.73838L17.2887 4.73838C17.4306 4.73838 17.5682 4.79568 17.6681 4.8956C17.6681 4.89561 17.6681 4.89562 17.6682 4.89564L17.2887 4.73838ZM17.2887 4.73838C17.1473 4.73843 17.0093 4.79565 16.9093 4.89562C16.8093 4.99557 16.7521 5.13366 16.7521 5.27506M17.2887 4.73838L16.7521 5.27506M16.7521 5.27506C16.7521 5.41644 16.8093 5.55456 16.9093 5.6545M16.7521 5.27506L16.9093 5.6545M16.9093 5.6545C17.0093 5.75441 17.1473 5.81174 17.2887 5.81174M16.9093 5.6545L17.2887 5.81174M17.2887 5.81174C17.4301 5.81174 17.5682 5.75447 17.6681 5.65445M17.2887 5.81174L17.6681 5.65445M17.6681 5.65445C17.6682 5.65444 17.6682 5.65443 17.6682 5.65442C17.7681 5.55453 17.8254 5.41646 17.8254 5.27506L17.6681 5.65445Z" fill="#8C8C8C" stroke="#8C8C8C" stroke-width="0.2"/>
<path d="M17.0509 16.0484H14.6637C14.3674 16.0484 14.1271 16.2888 14.1271 16.5851C14.1271 16.8815 14.3674 17.1218 14.6637 17.1218H17.0509C17.3473 17.1218 17.5876 16.8815 17.5876 16.5851C17.5876 16.2888 17.3473 16.0484 17.0509 16.0484Z" fill="#8C8C8C" stroke="#8C8C8C" stroke-width="0.2"/>
<path d="M17.0509 13.9525H14.6637C14.3674 13.9525 14.1271 14.1928 14.1271 14.4892C14.1271 14.7855 14.3674 15.0259 14.6637 15.0259H17.0509C17.3473 15.0259 17.5876 14.7855 17.5876 14.4892C17.5876 14.1928 17.3473 13.9525 17.0509 13.9525Z" fill="#8C8C8C" stroke="#8C8C8C" stroke-width="0.2"/>
<path d="M11.2004 18.7384C11.2004 18.7384 11.2004 18.7384 11.2003 18.7384C11.1004 18.6384 10.9623 18.5812 10.821 18.5812C10.6796 18.5812 10.5415 18.6384 10.4415 18.7384L10.5122 19.4265L10.4415 19.4972C10.4415 19.4972 10.4415 19.4973 10.4416 19.4973C10.5415 19.5972 10.6795 19.6545 10.821 19.6545C10.9624 19.6545 11.1005 19.5972 11.2004 19.4972L11.1297 19.4265M11.2004 18.7384C11.3004 18.8384 11.3576 18.9764 11.3576 19.1178C11.3576 19.2592 11.3004 19.3973 11.2003 19.4973L11.1297 19.4265M11.2004 18.7384C11.2004 18.7384 11.2004 18.7384 11.2004 18.7384L11.1297 18.8091M11.2004 18.7384L11.1297 18.8091M11.1297 19.4265C11.2109 19.3453 11.2576 19.2327 11.2576 19.1178C11.2576 19.003 11.2109 18.8903 11.1297 18.8091M11.1297 19.4265V18.8091" fill="#8C8C8C" stroke="#8C8C8C" stroke-width="0.2"/>
</svg>
