<svg width="24" height="24" viewBox="0 0 24 24" fill="none" xmlns="http://www.w3.org/2000/svg">
<path d="M12.3977 2.03312L12.3977 2.03312C12.1611 1.85551 11.8389 1.85549 11.6024 2.03313L1.17396 9.86102L1.17395 9.86103C0.875276 10.0853 0.811376 10.5134 1.02908 10.8182C1.24782 11.1244 1.66923 11.192 1.9694 10.9667L1.9694 10.9667L12 3.43728L22.0306 10.9666C22.1501 11.0564 22.2895 11.0999 22.4279 11.0999C22.6354 11.0999 22.8397 11.0019 22.9709 10.8182C23.1886 10.5134 23.1247 10.0853 22.8261 9.86103L22.766 9.941L22.8261 9.86102L12.3977 2.03312Z" fill="#8C8C8C" stroke="#8C8C8C" stroke-width="0.2"/>
<path d="M19.75 11.5816C19.75 11.2314 20.0425 10.9502 20.4 10.9502C20.7575 10.9502 21.0499 11.2314 21.05 11.5817V21.4187C21.05 21.7689 20.7575 22.0502 20.4 22.0502H14.4002C14.0597 22.0502 13.7789 21.7949 13.7527 21.4681C13.7512 21.4532 13.7502 21.437 13.7502 21.4187V15.7849C13.7502 14.8521 12.9665 14.0903 12 14.0903C11.0335 14.0903 10.2498 14.852 10.2498 15.7849V21.4187L19.75 11.5816ZM19.75 11.5816V20.7871M19.75 11.5816V20.7871M19.75 20.7871H15.0502V15.7849C15.0502 14.1525 13.6804 12.8273 12 12.8273C10.3196 12.8273 8.94983 14.1526 8.94983 15.7849V20.7872H4.24998V11.5817C4.24998 11.2315 3.95743 10.9502 3.59999 10.9502C3.24255 10.9502 2.95 11.2315 2.95 11.5817V21.4187C2.95 21.7689 3.24255 22.0502 3.59999 22.0502H9.59982C9.94016 22.0502 10.2209 21.7952 10.2473 21.4686L19.75 20.7871Z" fill="#8C8C8C" stroke="#8C8C8C" stroke-width="0.1"/>
</svg>
