<svg width="24" height="24" viewBox="0 0 24 24" fill="none" xmlns="http://www.w3.org/2000/svg">
<path d="M18.79 7.49192C19.0825 7.49192 19.3197 7.25478 19.3197 6.96221V2.28913C19.3197 1.52307 18.6966 0.9 17.9305 0.9H2.28913C1.52307 0.9 0.9 1.52307 0.9 2.28913V21.712C0.9 22.478 1.52307 23.1011 2.28913 23.1011H17.9305C18.6966 23.1011 19.3197 22.478 19.3197 21.712V18.5462C19.3197 18.2537 19.0825 18.0165 18.79 18.0165C18.4974 18.0165 18.2602 18.2537 18.2602 18.5462V21.712C18.2602 21.8937 18.1122 22.0417 17.9305 22.0417H2.28913C2.10741 22.0417 1.95942 21.8937 1.95942 21.712V2.28913C1.95942 2.10741 2.10741 1.95942 2.28913 1.95942H17.9305C18.1122 1.95942 18.2602 2.10741 18.2602 2.28913V6.96221C18.2602 7.25478 18.4974 7.49192 18.79 7.49192Z" fill="#8C8C8C" stroke="#8C8C8C" stroke-width="0.2"/>
<path d="M10.1098 3.21989C7.87471 3.21989 6.05649 5.03811 6.05649 7.27321C6.05649 8.43174 6.54524 9.47814 7.32675 10.2173C7.34232 10.2338 7.35949 10.2501 7.37868 10.2656C8.09952 10.9241 9.05856 11.3265 10.1098 11.3265C11.161 11.3265 12.12 10.9241 12.8409 10.2656C12.8601 10.2501 12.8773 10.2337 12.8927 10.2173C13.6744 9.47818 14.1631 8.43177 14.1631 7.27321C14.1631 5.03811 12.3449 3.21989 10.1098 3.21989ZM10.1098 10.2671C9.4627 10.2671 8.86327 10.0605 8.37306 9.70999C8.74231 9.11601 9.38988 8.74828 10.1098 8.74828C10.8297 8.74828 11.4773 9.11601 11.8466 9.70999C11.3563 10.0605 10.7569 10.2671 10.1098 10.2671ZM9.52228 7.10132V6.82201C9.52228 6.49815 9.78595 6.23448 10.1098 6.23448C10.4337 6.23448 10.6973 6.49815 10.6973 6.82201V7.10132C10.6973 7.42519 10.4337 7.68886 10.1098 7.68886C9.78595 7.68886 9.52228 7.42519 9.52228 7.10132ZM13.1037 7.27321C13.1037 7.88726 12.9177 8.45837 12.5993 8.93399C12.3046 8.5378 11.9223 8.22114 11.4848 8.00635C11.6564 7.74655 11.7568 7.43547 11.7568 7.10132V6.82201C11.7568 5.91377 11.0181 5.17506 10.1098 5.17506C9.20157 5.17506 8.46286 5.91377 8.46286 6.82201V7.10132C8.46286 7.43547 8.56319 7.74655 8.73481 8.00635C8.29732 8.22115 7.91504 8.5378 7.62036 8.93399C7.30191 8.45837 7.11591 7.88726 7.11591 7.27321C7.11591 5.62245 8.45905 4.2793 10.1098 4.2793C11.7606 4.2793 13.1037 5.62245 13.1037 7.27321Z" fill="#8C8C8C" stroke="#8C8C8C" stroke-width="0.2"/>
<path d="M12.4301 19.7207H10.1096C9.81713 19.7207 9.57993 19.9579 9.57993 20.2504C9.57993 20.543 9.81713 20.7801 10.1096 20.7801H12.4301C12.7226 20.7801 12.9598 20.543 12.9598 20.2504C12.9598 19.9579 12.7226 19.7207 12.4301 19.7207Z" fill="#8C8C8C" stroke="#8C8C8C" stroke-width="0.2"/>
<path d="M12.4302 17.3143H6.32839C6.03588 17.3143 5.79868 17.5515 5.79868 17.844C5.79868 18.1366 6.03588 18.3738 6.32839 18.3738H12.4302C12.7228 18.3738 12.96 18.1366 12.96 17.844C12.96 17.5515 12.7228 17.3143 12.4302 17.3143Z" fill="#8C8C8C" stroke="#8C8C8C" stroke-width="0.2"/>
<path d="M12.4302 14.908H6.32839C6.03588 14.908 5.79868 15.1451 5.79868 15.4377C5.79868 15.7302 6.03588 15.9674 6.32839 15.9674H12.4302C12.7228 15.9674 12.96 15.7302 12.96 15.4377C12.96 15.1451 12.7228 14.908 12.4302 14.908Z" fill="#8C8C8C" stroke="#8C8C8C" stroke-width="0.2"/>
<path d="M4.11788 13.406L4.11771 13.4058C4.01898 13.3072 3.9625 13.1709 3.9625 13.0313C3.9625 12.8917 4.01903 12.7555 4.11768 12.6568L4.11788 13.406ZM4.11788 13.406C4.21677 13.5044 4.35244 13.561 4.49221 13.561C4.63231 13.561 4.76804 13.5044 4.86694 13.406L4.86711 13.4058L4.11788 13.406ZM4.49221 12.5016C4.63213 12.5016 4.76843 12.5581 4.86709 12.6568C4.8671 12.6568 4.86712 12.6568 4.86713 12.6568L4.7964 12.7275L4.49221 12.5016ZM4.49221 12.5016C4.35261 12.5016 4.21632 12.5581 4.11769 12.6568L4.49221 12.5016Z" fill="#8C8C8C" stroke="#8C8C8C" stroke-width="0.2"/>
<path d="M4.86709 15.0631L4.86694 15.063C4.76804 14.9646 4.63231 14.908 4.49221 14.908C4.35244 14.908 4.21677 14.9646 4.11788 15.063L4.11788 15.063L4.11769 15.0632C4.01904 15.1618 3.9625 15.2981 3.9625 15.4377C3.9625 15.5772 4.01898 15.7135 4.11771 15.8122L4.11788 15.8124C4.21677 15.9107 4.35244 15.9674 4.49221 15.9674C4.63231 15.9674 4.76804 15.9108 4.86694 15.8124L4.86711 15.8122C4.96575 15.7136 5.02235 15.5773 5.02235 15.4377C5.02235 15.2981 4.9658 15.1618 4.86709 15.0631Z" fill="#8C8C8C" stroke="#8C8C8C" stroke-width="0.2"/>
<path d="M4.86694 17.4694L4.86709 17.4695C4.9658 17.5682 5.02235 17.7045 5.02235 17.844C5.02235 17.9836 4.96575 18.1199 4.86713 18.2185L4.86694 17.4694ZM4.86694 17.4694C4.76804 17.3709 4.63231 17.3143 4.49221 17.3143C4.35244 17.3143 4.21677 17.371 4.11788 17.4693L4.11788 17.4693M4.86694 17.4694L4.11788 17.4693M4.11788 17.4693L4.11769 17.4695L4.11788 17.4693ZM4.1884 18.1479C4.10844 18.0679 4.0625 17.9571 4.0625 17.844C4.0625 17.731 4.10848 17.6202 4.1884 17.5402L4.86711 18.2186C4.76845 18.3173 4.63214 18.3738 4.49221 18.3738C4.35262 18.3738 4.21634 18.3172 4.11771 18.2186C4.1177 18.2186 4.11769 18.2186 4.11768 18.2185L4.1884 18.1479ZM4.1884 18.1479C4.26829 18.2278 4.37915 18.2738 4.49221 18.2738C4.60565 18.2738 4.71652 18.2278 4.7964 18.1479H4.1884Z" fill="#8C8C8C" stroke="#8C8C8C" stroke-width="0.2"/>
<path d="M12.4302 12.5016H6.32839C6.03588 12.5016 5.79868 12.7387 5.79868 13.0313C5.79868 13.3239 6.03588 13.561 6.32839 13.561H12.4302C12.7228 13.561 12.96 13.3239 12.96 13.0313C12.96 12.7387 12.7228 12.5016 12.4302 12.5016Z" fill="#8C8C8C" stroke="#8C8C8C" stroke-width="0.2"/>
<path d="M20.7026 6.32251L20.7026 6.3225C21.1939 6.1909 21.7076 6.25852 22.148 6.5128L22.098 6.5994L22.148 6.5128C23.0576 7.03802 23.3704 8.20516 22.8451 9.11481L17.4377 18.4808C17.4377 18.4808 17.4376 18.4809 17.4376 18.4809C17.4011 18.5442 17.3518 18.5992 17.293 18.6425L20.7026 6.32251ZM20.7026 6.32251C20.2113 6.45416 19.8003 6.76956 19.546 7.21C19.546 7.21 19.546 7.21 19.546 7.21L14.1385 16.5761L14.1384 16.5761C14.102 16.6393 14.0789 16.7095 14.0708 16.7822L13.6901 20.1916L13.6901 20.1917C13.6668 20.4008 13.7695 20.6039 13.9517 20.7092L13.9517 20.7092C14.0339 20.7566 14.1253 20.7801 14.2165 20.7801C14.3273 20.7801 14.4377 20.7455 14.5307 20.677C14.5307 20.6769 14.5307 20.6769 14.5307 20.6769L17.293 18.6425L20.7026 6.32251ZM20.9768 7.34584L20.9768 7.34584C21.1951 7.28731 21.4226 7.31731 21.6182 7.4303L21.6182 7.43031C21.8139 7.54329 21.9536 7.7253 22.0121 7.94359C22.0706 8.16188 22.0407 8.38936 21.9277 8.58506L21.5541 9.2321L20.0899 8.38674L20.4635 7.7397L20.3769 7.6897L20.4635 7.7397C20.5765 7.544 20.7585 7.40434 20.9768 7.34584ZM14.8773 19.1059L15.0338 17.7046L16.0126 18.2698L14.8773 19.1059ZM16.785 17.4924L15.3208 16.647L19.5602 9.3042L21.0244 10.1496L16.785 17.4924Z" fill="#8C8C8C" stroke="#8C8C8C" stroke-width="0.2"/>
</svg>
