<svg width="24" height="24" viewBox="0 0 24 24" fill="#005487" xmlns="http://www.w3.org/2000/svg">
<path d="M11.4248 10.1096H5.79234C4.93025 10.1096 4.2291 10.8107 4.2291 11.6728V15.5586C4.2291 16.4207 4.93025 17.1218 5.79234 17.1218H11.4248C12.2869 17.1218 12.9881 16.4207 12.9881 15.5586V11.6728C12.9881 10.8107 12.2869 10.1096 11.4248 10.1096ZM11.9147 15.5586C11.9147 15.8286 11.6949 16.0485 11.4248 16.0485H5.79234C5.52232 16.0485 5.30247 15.8286 5.30247 15.5586V11.6728C5.30247 11.4028 5.52232 11.183 5.79234 11.183H11.4248C11.6949 11.183 11.9147 11.4028 11.9147 11.6728V15.5586Z" fill="#8C8C8C" stroke="#8C8C8C" stroke-width="0.2"/>
<path d="M9.40681 13.2376L8.24706 12.568C8.11195 12.49 7.94549 12.49 7.81038 12.568C7.67527 12.646 7.59204 12.7902 7.59204 12.9462V14.2853C7.59204 14.4413 7.67527 14.5855 7.81038 14.6635C7.87794 14.7025 7.95331 14.722 8.02872 14.722C8.10414 14.722 8.17951 14.7025 8.24706 14.6635L9.40681 13.9939C9.54191 13.9159 9.62515 13.7717 9.62515 13.6157C9.62515 13.4597 9.54191 13.3155 9.40681 13.2376Z" fill="#8C8C8C"/>
<path d="M17.514 2.00497L17.5139 2.00497C17.3731 1.93168 17.2054 1.93168 17.0646 2.00497L17.0645 2.00497L11.6113 4.84341L11.6343 4.88776L11.6113 4.84341C11.4503 4.92721 11.3493 5.09361 11.3493 5.2751C11.3493 5.45658 11.4503 5.62298 11.6113 5.70678L11.6343 5.66243L11.6113 5.70679L13.6841 6.78571V7.62685H4.96953C3.32863 7.62685 1.99376 8.96173 1.99376 10.6026V18.6312H1.25773C0.988977 18.6312 0.771045 18.8492 0.771045 19.1179C0.771045 20.7348 2.08632 22.05 3.70315 22.05H17.939C19.5558 22.05 20.8711 20.7348 20.8711 19.1179C20.8711 18.8492 20.6532 18.6312 20.3844 18.6312H19.6484V10.6026C19.6484 10.5519 19.6466 10.5015 19.6439 10.4514L20.5979 10.0462C20.7777 9.96988 20.8944 9.79351 20.8944 9.59825V6.7857L22.2558 6.07705V8.66729C22.2558 8.93604 22.4737 9.15397 22.7425 9.15397C23.0112 9.15397 23.2292 8.93604 23.2292 8.66729V5.2751C23.2292 5.09357 23.1282 4.92717 22.9672 4.84341L17.514 2.00497ZM17.099 11.3708L17.099 11.3708C17.1598 11.3966 17.2245 11.4095 17.2892 11.4095C17.354 11.4095 17.4187 11.3966 17.4795 11.3708L17.4795 11.3708L18.675 10.863V18.6312H12.7861C12.5174 18.6312 12.2995 18.8492 12.2995 19.1179C12.2995 19.3867 12.5174 19.6046 12.7861 19.6046H19.8365C19.6195 20.45 18.8509 21.0767 17.939 21.0767H3.70315C2.79119 21.0767 2.0226 20.45 1.80561 19.6046H8.856C9.12475 19.6046 9.34268 19.3867 9.34268 19.1179C9.34268 18.8492 9.12475 18.6312 8.856 18.6312H2.96712V10.6026C2.96712 9.49853 3.86543 8.60021 4.96953 8.60021H13.6841V9.59825C13.6841 9.7935 13.8007 9.96988 13.9805 10.0462C13.9805 10.0462 13.9805 10.0462 13.9805 10.0462L17.099 11.3708ZM17.5139 8.54522L17.4909 8.50087L17.514 8.54522L19.921 7.29234V9.27621L17.2892 10.3941L14.6575 9.27621V7.29234L17.0645 8.54522L17.0876 8.50087L17.0646 8.54522C17.135 8.58186 17.2121 8.60021 17.2892 8.60021C17.3664 8.60021 17.4435 8.58186 17.5139 8.54522ZM17.2892 2.9853L21.6884 5.2751L17.2892 7.56485L12.8901 5.2751L17.2892 2.9853Z" fill="#8C8C8C" stroke="#8C8C8C" stroke-width="0.1"/>
<path d="M17.2892 4.73838L17.2892 4.73838C17.431 4.73838 17.5687 4.79568 17.6686 4.8956C17.6686 4.89561 17.6686 4.89562 17.6686 4.89564L17.2892 4.73838ZM17.2892 4.73838C17.1478 4.73843 17.0097 4.79565 16.9098 4.89562C16.8098 4.99557 16.7525 5.13366 16.7525 5.27506M17.2892 4.73838L16.7525 5.27506M16.7525 5.27506C16.7525 5.41644 16.8098 5.55456 16.9098 5.6545M16.7525 5.27506L16.9098 5.6545M16.9098 5.6545C17.0097 5.75441 17.1478 5.81174 17.2892 5.81174M16.9098 5.6545L17.2892 5.81174M17.2892 5.81174C17.4306 5.81174 17.5687 5.75447 17.6686 5.65445M17.2892 5.81174L17.6686 5.65445M17.6686 5.65445C17.6686 5.65444 17.6687 5.65443 17.6687 5.65442C17.7686 5.55453 17.8259 5.41646 17.8259 5.27506L17.6686 5.65445Z" fill="#8C8C8C" stroke="#8C8C8C" stroke-width="0.2"/>
<path d="M17.0512 16.0485H14.664C14.3676 16.0485 14.1273 16.2888 14.1273 16.5852C14.1273 16.8815 14.3676 17.1219 14.664 17.1219H17.0512C17.3476 17.1219 17.5879 16.8815 17.5879 16.5852C17.5879 16.2888 17.3476 16.0485 17.0512 16.0485Z" fill="#8C8C8C" stroke="#8C8C8C" stroke-width="0.2"/>
<path d="M17.0512 13.9524H14.664C14.3676 13.9524 14.1273 14.1927 14.1273 14.4891C14.1273 14.7855 14.3676 15.0258 14.664 15.0258H17.0512C17.3476 15.0258 17.5879 14.7855 17.5879 14.4891C17.5879 14.1927 17.3476 13.9524 17.0512 13.9524Z" fill="#8C8C8C" stroke="#8C8C8C" stroke-width="0.2"/>
<path d="M11.2006 18.7385C11.2006 18.7385 11.2006 18.7385 11.2006 18.7385C11.1006 18.6384 10.9626 18.5812 10.8212 18.5812C10.6798 18.5812 10.5417 18.6385 10.4417 18.7385L10.5125 19.4266L10.4418 19.4973C10.4418 19.4973 10.4418 19.4974 10.4418 19.4974C10.5417 19.5973 10.6798 19.6546 10.8212 19.6546C10.9626 19.6546 11.1007 19.5973 11.2006 19.4973L11.1299 19.4266M11.2006 18.7385C11.3006 18.8384 11.3579 18.9765 11.3579 19.1179C11.3579 19.2593 11.3006 19.3974 11.2006 19.4974L11.1299 19.4266M11.2006 18.7385C11.2006 18.7385 11.2006 18.7385 11.2006 18.7385L11.1299 18.8092M11.2006 18.7385L11.1299 18.8092M11.1299 19.4266C11.2112 19.3454 11.2579 19.2328 11.2579 19.1179C11.2579 19.0031 11.2112 18.8904 11.1299 18.8092M11.1299 19.4266V18.8092" fill="#8C8C8C" stroke="#8C8C8C" stroke-width="0.2"/>
</svg>
