<svg width="24" height="24" viewBox="0 0 24 24" fill="none" xmlns="http://www.w3.org/2000/svg">
<g clip-path="url(#clip0)">
<path d="M10.25 20H4.75C3.785 20 3 19.215 3 18.25V9.75C3 8.785 3.785 8 4.75 8H10.25C11.215 8 12 8.785 12 9.75V18.25C12 19.215 11.215 20 10.25 20ZM4.75 9.5C4.612 9.5 4.5 9.612 4.5 9.75V18.25C4.5 18.388 4.612 18.5 4.75 18.5H10.25C10.388 18.5 10.5 18.388 10.5 18.25V9.75C10.5 9.612 10.388 9.5 10.25 9.5H4.75Z" fill="#8C8C8C"/>
<path d="M20.25 10H14.75C14.336 10 14 9.664 14 9.25C14 8.836 14.336 8.5 14.75 8.5H20.25C20.664 8.5 21 8.836 21 9.25C21 9.664 20.664 10 20.25 10Z" fill="#8C8C8C"/>
<path d="M20.25 13H14.75C14.336 13 14 12.664 14 12.25C14 11.836 14.336 11.5 14.75 11.5H20.25C20.664 11.5 21 11.836 21 12.25C21 12.664 20.664 13 20.25 13Z" fill="#8C8C8C"/>
<path d="M20.25 16H14.75C14.336 16 14 15.664 14 15.25C14 14.836 14.336 14.5 14.75 14.5H20.25C20.664 14.5 21 14.836 21 15.25C21 15.664 20.664 16 20.25 16Z" fill="#8C8C8C"/>
<path d="M20.25 19H14.75C14.336 19 14 18.664 14 18.25C14 17.836 14.336 17.5 14.75 17.5H20.25C20.664 17.5 21 17.836 21 18.25C21 18.664 20.664 19 20.25 19Z" fill="#8C8C8C"/>
<path d="M11.0209 19.6401C10.7879 19.6401 10.5589 19.5321 10.4119 19.3281L3.37191 9.54906C3.12891 9.21206 3.20591 8.74405 3.54191 8.50205C3.87791 8.26005 4.34591 8.33705 4.58891 8.67205L11.6289 18.4511C11.8709 18.7881 11.7949 19.2561 11.4579 19.4981C11.3259 19.5941 11.1719 19.6401 11.0209 19.6401Z" fill="#8C8C8C"/>
<path d="M3.97916 19.6401C3.82716 19.6401 3.67416 19.5941 3.54116 19.4981C3.20516 19.2561 3.12816 18.7881 3.37016 18.4511L10.4102 8.67205C10.6532 8.33705 11.1232 8.26005 11.4572 8.50205C11.7932 8.74405 11.8702 9.21206 11.6282 9.54906L4.58816 19.3281C4.44216 19.5311 4.21216 19.6401 3.97916 19.6401Z" fill="#8C8C8C"/>
<path d="M21.25 23H2.75C1.233 23 0 21.767 0 20.25V3.75C0 2.233 1.233 1 2.75 1H21.25C22.767 1 24 2.233 24 3.75V20.25C24 21.767 22.767 23 21.25 23ZM2.75 2.5C2.061 2.5 1.5 3.061 1.5 3.75V20.25C1.5 20.939 2.061 21.5 2.75 21.5H21.25C21.939 21.5 22.5 20.939 22.5 20.25V3.75C22.5 3.061 21.939 2.5 21.25 2.5H2.75Z" fill="#8C8C8C"/>
<path d="M23.25 6H0.75C0.336 6 0 5.664 0 5.25C0 4.836 0.336 4.5 0.75 4.5H23.25C23.664 4.5 24 4.836 24 5.25C24 5.664 23.664 6 23.25 6Z" fill="#8C8C8C"/>
</g>
<defs>
<clipPath id="clip0">
<rect width="24" height="24" fill="white"/>
</clipPath>
</defs>
</svg>
