<svg width="24" height="24" viewBox="0 0 24 24" fill="none" xmlns="http://www.w3.org/2000/svg">
<path d="M10.67 21.0913C10.6045 21.097 10.5376 21.1 10.4718 21.1C9.86759 21.1 9.29046 20.8715 8.84746 20.457L2.66741 14.6786C2.19874 14.2404 1.92686 13.6436 1.90185 12.9991L1.90185 12.9991C1.87704 12.3548 2.10196 11.7383 2.53552 11.2646C2.96893 10.7907 3.55974 10.5154 4.19821 10.4901C4.83628 10.4628 5.44741 10.693 5.9157 11.1312C5.91571 11.1312 5.91573 11.1312 5.91574 11.1313L10.179 15.1173L18.8179 3.83642L18.818 3.8364C19.6247 2.78335 21.1305 2.58859 22.1737 3.40453L22.1738 3.40458C23.2163 4.22122 23.4074 5.74144 22.6009 6.79438L12.3633 20.1624L12.3633 20.1624C11.9538 20.6968 11.337 21.0355 10.67 21.0913ZM10.67 21.0913C10.67 21.0913 10.6699 21.0913 10.6698 21.0913L10.6615 20.9917L10.6702 21.0913C10.6701 21.0913 10.6701 21.0913 10.67 21.0913ZM3.62418 13.6362L3.6242 13.6362L9.80416 19.4146C10.0062 19.6034 10.2761 19.6985 10.5526 19.6756C10.8271 19.6526 11.0812 19.5132 11.2497 19.2931L21.4874 5.92515L21.4874 5.92514C21.82 5.49101 21.7408 4.86359 21.3115 4.52736C20.8829 4.19268 20.2639 4.27183 19.9318 4.70553L19.8524 4.64474L19.9318 4.70554L10.8223 16.6008C10.8223 16.6008 10.8223 16.6008 10.8223 16.6008C10.7018 16.7581 10.5213 16.8574 10.3244 16.874M3.62418 13.6362L10.3236 16.874C10.3239 16.874 10.3241 16.874 10.3244 16.874M3.62418 13.6362C3.43083 13.4555 3.31884 13.21 3.30846 12.9436C3.29818 12.6775 3.39091 12.4239 3.56965 12.2285C3.74832 12.0332 3.99055 11.9204 4.25276 11.9098L3.62418 13.6362ZM10.3244 16.874C10.1254 16.8934 9.93105 16.8218 9.7871 16.6873L9.78708 16.6873L4.95921 12.1734C4.77569 12.0018 4.54062 11.9091 4.29273 11.9091L10.3244 16.874Z" fill="#8C8C8C" stroke="#8C8C8C" stroke-width="0.2"/>
</svg>
