<svg width="24" height="24" viewBox="0 0 24 24" fill="none" xmlns="http://www.w3.org/2000/svg">
<path d="M21.0476 17.5652C19.4524 17.5652 18.8333 16.7174 18.8333 11.3913C18.8333 7.21739 16.7619 4.6087 13.1905 4.21739V2.86957C13.1905 2.3913 12.7619 2 12.2381 2C11.7143 2 11.2857 2.3913 11.2857 2.86957V4.17391C7.47619 4.45652 5.2619 7.1087 5.2619 11.3696C5.2619 16.6957 4.57143 17.5435 2.95238 17.5435C2.45238 17.5652 2 17.8913 2 18.3696C2 18.8696 2.42857 19.1957 2.95238 19.1957H9.14286C9.21429 19.8478 9.42857 20.6522 10 21.2174C10.5 21.7174 11.1667 22 11.9524 22C12.7381 22 13.4048 21.6957 13.9048 21.2174C14.5 20.6304 14.7381 19.8478 14.8333 19.1957H21.0476C21.5714 19.1957 22 18.8696 22 18.3696C22 17.8913 21.5714 17.5652 21.0476 17.5652ZM12.5238 20.0435C12.4286 20.1304 12.2857 20.2609 11.9524 20.2609C11.6429 20.2609 11.5 20.1304 11.4048 20.0435C11.2381 19.8478 11.119 19.6304 11.0714 19.1957H11.881C11.9286 19.1957 11.9762 19.1957 12.0238 19.1957C12.0714 19.1957 12.119 19.1957 12.1667 19.1957H12.9524C12.8571 19.6304 12.7381 19.8478 12.5238 20.0435ZM12.1429 17.4565C12.0952 17.4565 12.0476 17.4565 12 17.4565C11.9524 17.4565 11.9048 17.4565 11.8571 17.4565H6.2381C7.11905 15.9348 7.11905 13.5652 7.11905 11.3478C7.11905 7.80435 8.80952 5.93478 11.8571 5.93478H12.119C15.1667 5.93478 16.8571 7.80435 16.8571 11.3478C16.8571 13.5652 16.8571 15.9348 17.7381 17.4565H12.1429Z" fill="#8C8C8C"/>
</svg>
