<svg width="24" height="24" viewBox="0 0 24 24" fill="none" xmlns="http://www.w3.org/2000/svg">
<path d="M19.3333 2.1C19.3327 1.49277 18.8406 1.00064 18.2333 1L19.7 2.1H19.3333ZM19.3333 2.1L19.4333 2.09989C19.4333 2.06625 19.4319 2.03294 19.4291 2M19.3333 2.1V2H19.4291M19.4291 2C19.3778 1.38437 18.8622 0.900667 18.2335 0.9H18.2333L12 0.899999L11.9997 0.900001C11.5852 0.901348 11.19 1.06779 10.9 1.35967M19.4291 2H19.7H19.7001C20.3625 2.0007 20.8993 2.53751 20.9 3.19989V3.2V9.556C20.8779 9.54766 20.8557 9.53954 20.8334 9.53163L10.9 1.35967M10.9 1.35967C10.61 1.06779 10.2148 0.901348 9.80033 0.9H9.8L3.56665 0.9L3.56655 0.9C2.93781 0.900667 2.4222 1.38437 2.37085 2L2.1 2L2.09989 2C1.43751 2.0007 0.900703 2.53751 0.9 3.19989V3.2L0.9 16.7667L0.9 16.7668C0.900703 17.4291 1.43751 17.9659 2.09989 17.9667H2.1H14.1" fill="#8C8C8C" stroke="#8C8C8C" stroke-width="0.2"/>
</svg>
