<svg id="Layer_1" enable-background="new 0 0 512 512" height="512" viewBox="0 0 512 512" width="512" xmlns="http://www.w3.org/2000/svg"><g><g><g><path d="m343.406 422.635h-275.812c-16.569 0-30-13.431-30-30v-355.135c0-16.569 13.431-30 30-30h275.811c16.569 0 30 13.431 30 30v355.135c.001 16.569-13.431 30-29.999 30z" fill="#f7f6f7"/><path d="m343.406 7.5h-30c16.568 0 30 13.431 30 30v355.135c0 16.569-13.432 30-30 30h30c16.568 0 30-13.431 30-30v-355.135c0-16.569-13.432-30-30-30z" fill="#e2d8ec"/><path d="m373.5 504.5h-336c-16.569 0-30-13.431-30-30v-242c0-16.569 13.431-30 30-30h146.342c11.931 0 22.33 8.12 25.224 19.694l5.153 20.612c2.894 11.574 13.293 19.694 25.224 19.694h134.057c16.569 0 30 13.431 30 30v182c0 16.569-13.431 30-30 30z" fill="#f7e07f"/><g fill="#f0d16f"><path d="m179.066 222.194 5.153 20.612c2.894 11.574 13.293 19.694 25.224 19.694h30c-11.93 0-22.33-8.12-25.224-19.694l-5.153-20.612c-2.894-11.574-13.293-19.694-25.224-19.694h-30c11.931 0 22.33 8.12 25.224 19.694z"/><path d="m373.5 262.5h-30c16.569 0 30 13.431 30 30v182c0 16.569-13.431 30-30 30h30c16.569 0 30-13.431 30-30v-182c0-16.569-13.431-30-30-30z"/></g><path d="m317.451 97.5h-223.902c-2.761 0-5-2.239-5-5v-35c0-2.761 2.239-5 5-5h223.902c2.761 0 5 2.239 5 5v35c0 2.761-2.239 5-5 5z" fill="#e2dfe3"/></g><g><circle cx="410.767" cy="410.767" fill="#bfe69f" r="93.733"/><path d="m410.767 317.033c-5.106 0-10.115.415-15 1.2 44.636 7.18 78.733 45.872 78.733 92.533s-34.097 85.353-78.733 92.533c4.885.786 9.894 1.2 15 1.2 51.768 0 93.733-41.966 93.733-93.733s-41.966-93.733-93.733-93.733z" fill="#a4d9a6"/><path d="m393.333 424.837v-61.411c0-3.124 2.532-5.656 5.656-5.656h23.554c3.124 0 5.656 2.532 5.656 5.656v61.411c0 3.124 2.532 5.656 5.656 5.656h12.941c4.319 0 6.483 5.222 3.428 8.277l-35.459 35.459c-2.209 2.209-5.79 2.209-7.999 0l-35.459-35.459c-3.054-3.054-.891-8.277 3.428-8.277h12.941c3.125 0 5.657-2.532 5.657-5.656z" fill="#fff"/></g></g><path d="m322.451 135h-233.902c-4.142 0-7.5 3.358-7.5 7.5s3.358 7.5 7.5 7.5h233.901c4.142 0 7.5-3.358 7.5-7.5s-3.357-7.5-7.499-7.5zm-5-90h-49.62c-4.142 0-7.5 3.358-7.5 7.5s3.358 7.5 7.5 7.5h47.12v30h-218.902v-30h136.781c4.142 0 7.5-3.358 7.5-7.5s-3.358-7.5-7.5-7.5h-139.281c-6.893 0-12.5 5.607-12.5 12.5v35c0 6.893 5.607 12.5 12.5 12.5h223.901c6.893 0 12.5-5.607 12.5-12.5v-35c.001-6.893-5.607-12.5-12.499-12.5zm5 120h-233.902c-4.142 0-7.5 3.358-7.5 7.5s3.358 7.5 7.5 7.5h233.901c4.142 0 7.5-3.358 7.5-7.5s-3.357-7.5-7.499-7.5zm0 60h-83.901c-4.142 0-7.5 3.358-7.5 7.5s3.358 7.5 7.5 7.5h83.901c4.142 0 7.5-3.358 7.5-7.5s-3.358-7.5-7.5-7.5zm0-30h-83.901c-4.142 0-7.5 3.358-7.5 7.5s3.358 7.5 7.5 7.5h83.901c4.142 0 7.5-3.358 7.5-7.5s-3.358-7.5-7.5-7.5zm88.549 114.536v-17.036c0-18.141-12.949-33.312-30.09-36.761v-218.239c0-20.678-16.822-37.5-37.5-37.5h-275.82c-20.678 0-37.5 16.822-37.5 37.5v158.239c-17.141 3.449-30.09 18.62-30.09 36.761v106.42c0 4.142 3.358 7.5 7.5 7.5s7.5-3.358 7.5-7.5v-106.42c0-12.407 10.093-22.5 22.5-22.5h146.34c8.503 0 15.887 5.763 17.954 14.007l5.15 20.62c3.731 14.939 17.094 25.373 32.496 25.373h134.06c12.407 0 22.5 10.093 22.5 22.5v18.113c-48.846 7.17-86.467 49.348-86.467 100.153 0 36.414 19.329 68.395 48.262 86.233h-320.295c-12.407.001-22.5-10.092-22.5-22.499v-100.58c0-4.142-3.358-7.5-7.5-7.5s-7.5 3.358-7.5 7.5v100.58c0 20.678 16.822 37.5 37.5 37.5h336c4.866 0 9.552-.919 13.975-2.709 7.481 1.768 15.278 2.709 23.292 2.709 55.82 0 101.233-45.413 101.233-101.233 0-55.743-45.287-101.104-101-101.231zm-45.09-54.536h-126.47c-8.505 0-15.883-5.76-17.943-14.007l-5.152-20.626c-3.743-14.936-17.11-25.367-32.505-25.367h-138.75v-157.5c0-12.407 10.093-22.5 22.5-22.5h275.82c12.407 0 22.5 10.093 22.5 22.5zm44.857 242c-47.549 0-86.233-38.684-86.233-86.233s38.684-86.233 86.233-86.233 86.233 38.683 86.233 86.233-38.684 86.233-86.233 86.233zm36.03-74.007h-11.097v-59.568c0-7.254-5.902-13.156-13.156-13.156h-23.554c-7.254 0-13.156 5.902-13.156 13.156v59.568h-11.097c-5.012 0-9.49 2.992-11.408 7.623s-.868 9.913 2.677 13.457l35.459 35.459c2.565 2.565 5.934 3.847 9.303 3.847s6.738-1.282 9.303-3.847l35.459-35.459c3.544-3.544 4.595-8.826 2.677-13.457-1.92-4.631-6.398-7.623-11.41-7.623zm-36.03 44.629-29.628-29.628h6.539c7.254 0 13.156-5.902 13.156-13.156v-59.568h19.866v59.568c0 7.254 5.902 13.156 13.156 13.156h6.539zm-123.211-109.648c4.142 0 7.5-3.358 7.5-7.5s-3.358-7.5-7.5-7.5h-26.97c-4.142 0-7.5 3.358-7.5 7.5v66.542c0 4.142 3.358 7.5 7.5 7.5s7.5-3.358 7.5-7.5v-26.401h17.328c4.142 0 7.5-3.358 7.5-7.5s-3.358-7.5-7.5-7.5h-17.328v-17.641zm-98.241 66.543h.028c.557-.002 13.689-.053 18.934-.144 19.179-.335 33.099-17.108 33.099-39.881 0-23.94-13.571-40.025-33.769-40.025h-18.424c-1.992 0-3.901.792-5.308 2.202s-2.196 3.321-2.192 5.313v.052 63.928c.019 4.286 3.3 8.589 7.632 8.555zm18.292-65.051c13.838 0 18.769 12.927 18.769 25.025 0 16.968-9.222 24.724-18.361 24.883-2.568.045-7.207.081-11.226.104-.025-7.693-.079-42.013-.093-50.013h10.911zm-76.663 57.551v-21.658c3.972-.021 8.585-.042 11.166-.042 14.771 0 26.787-11.851 26.787-26.417s-12.017-26.417-26.787-26.417h-18.666c-3.708-.074-7.656 3.284-7.5 7.5v67.033c0 4.142 3.358 7.5 7.5 7.5s7.5-3.357 7.5-7.499zm11.165-59.534c6.389 0 11.787 5.228 11.787 11.417s-5.398 11.417-11.787 11.417c-2.562 0-7.118.021-11.077.041-.021-4.084-.054-18.604-.066-22.875z"/></g></svg>