<svg width="24" height="24" viewBox="0 0 24 24" fill="none" xmlns="http://www.w3.org/2000/svg">
<path d="M8.28649 17.4196L8.28649 17.4196L8.95452 15.3634L8.95456 15.3632C8.97296 15.3069 8.95316 15.2457 8.9049 15.2106C8.90489 15.2106 8.90487 15.2106 8.90486 15.2105L7.15578 13.9399L7.15577 13.9399C6.71949 13.6228 6.5445 13.0843 6.71128 12.5712L8.28649 17.4196ZM8.28649 17.4196C8.11986 17.9327 8.29475 18.4711 8.73125 18.7882L8.28649 17.4196ZM10.8353 9.57478L10.8353 9.57476C11.0021 9.06167 11.4601 8.72883 11.9996 8.72883C12.5391 8.72883 12.9971 9.06167 13.1638 9.57476L13.1638 9.57477L13.8319 11.631L13.7368 11.6619L13.8319 11.631C13.8503 11.6875 13.9023 11.7253 13.9618 11.7253H16.1237C16.6632 11.7253 17.1212 12.0582 17.2878 12.5711M10.8353 9.57478L17.2878 12.5711M10.8353 9.57478L10.1674 11.6307C10.1674 11.6307 10.1674 11.6307 10.1674 11.6307C10.1488 11.6877 10.0967 11.7254 10.0373 11.7254H7.87539C7.33588 11.7254 6.87793 12.0582 6.71128 12.5712L10.8353 9.57478ZM17.2878 12.5711C17.4546 13.0843 17.2796 13.6227 16.8433 13.9398M17.2878 12.5711L16.8433 13.9398M16.7845 13.8589L16.8433 13.9398L15.0943 15.2105C15.046 15.2457 15.0262 15.3069 15.0445 15.3632L15.0445 15.3632L15.7128 17.4196L15.7128 17.4196C15.8794 17.9327 15.7044 18.4711 15.268 18.7882C14.8316 19.1055 14.2656 19.1054 13.829 18.7882L12.0799 17.5174L16.7845 13.8589ZM16.7845 13.8589L16.8433 13.9398M16.7845 13.8589L16.8433 13.9398M9.54422 14.3308L9.54426 14.3308C9.97438 14.6435 10.1533 15.1938 9.98873 15.6994C9.98872 15.6994 9.98872 15.6995 9.98871 15.6995L9.32083 17.7555C9.30541 17.803 9.31333 17.8342 9.32422 17.8557C9.33661 17.8802 9.35642 17.8982 9.37028 17.9084C9.3845 17.9186 9.40776 17.9319 9.4348 17.9362C9.45847 17.9399 9.49054 17.9378 9.53094 17.9085L11.28 16.6376L11.28 16.6376C11.7105 16.325 12.2888 16.3252 12.719 16.6375L12.7191 16.6375L14.4682 17.9085C14.5087 17.9378 14.5408 17.9399 14.5645 17.9362C14.5915 17.9319 14.6147 17.9186 14.6287 17.9085C14.6425 17.8985 14.6625 17.8804 14.675 17.8558C14.6859 17.8343 14.6938 17.803 14.6784 17.7555L14.0103 15.6993C14.0103 15.6993 14.0103 15.6993 14.0103 15.6993C13.8459 15.1938 14.0247 14.6435 14.4549 14.3308L14.455 14.3308L16.204 13.0601C16.204 13.0601 16.204 13.0601 16.204 13.0601C16.2443 13.0308 16.2563 13.0008 16.2601 12.977L9.54422 14.3308ZM9.54422 14.3308L7.79515 13.0601C7.75483 13.0308 7.74287 13.0008 7.73906 12.9771C7.73469 12.9498 7.74025 12.9235 7.74549 12.9075L9.54422 14.3308ZM16.2178 12.8471C16.2373 12.8665 16.2483 12.8911 16.2537 12.9074L7.7814 12.8471C7.79846 12.8301 7.82567 12.8129 7.87546 12.8129H10.0374C10.5691 12.8129 11.0372 12.4728 11.2017 11.967L11.2017 11.967L11.8698 9.91078C11.8852 9.86335 11.9099 9.84276 11.9313 9.83181C11.9558 9.81925 11.9826 9.81639 11.9997 9.81639C12.0167 9.81639 12.0435 9.81924 12.068 9.83179C12.0894 9.84274 12.1142 9.86332 12.1296 9.91076L12.1296 9.91077L12.7976 11.9668C12.7976 11.9668 12.7976 11.9668 12.7976 11.9668C12.9618 12.4728 13.43 12.8129 13.9619 12.8129H16.1237C16.1735 12.8129 16.2008 12.8301 16.2178 12.8471ZM8.73127 18.7882C8.94878 18.9463 9.19938 19.026 9.45074 19.026C9.70208 19.026 9.95271 18.9464 10.1702 18.7882L11.9191 17.5175C11.9675 17.4824 12.0317 17.4824 12.0799 17.5174L8.73127 18.7882Z" fill="#8C8C8C" stroke="#8C8C8C" stroke-width="0.2"/>
<path d="M20.0295 14.0458L20.0295 14.0458L18.5769 12.9903L18.5768 12.9903C18.5695 12.9849 18.5596 12.9849 18.5522 12.9903L18.5521 12.9903L17.0997 14.0456C16.8033 14.2611 16.4356 14.3176 16.0919 14.1994L16.0918 14.1994C15.9002 14.1332 15.7612 13.9661 15.7315 13.7655M20.0295 14.0458L15.7315 13.7655M20.0295 14.0458C20.2265 14.1888 20.4533 14.261 20.6811 14.261C20.9089 14.261 21.1359 14.1887 21.3329 14.0456C21.7282 13.7585 21.8865 13.2706 21.7357 12.806L21.7357 12.806L21.1809 11.0985C21.178 11.0897 21.1809 11.0804 21.1887 11.0748L21.1887 11.0748M20.0295 14.0458L21.1887 11.0748M15.7315 13.7655C15.7315 13.7656 15.7315 13.7656 15.7315 13.7656L15.8304 13.7508L15.7315 13.7655C15.7016 13.565 15.7856 13.3645 15.9497 13.2454L16.0085 13.3263L15.9497 13.2454L16.2049 13.0601L16.2637 13.141L16.205 13.0601L15.7315 13.7655ZM16.9551 7.99957L16.9552 7.99939L17.51 6.2919L17.51 6.2919L17.6051 6.3228L16.9551 7.99957ZM16.9551 7.99957C16.9524 8.00803 16.9445 8.01392 16.9352 8.01392H15.1399C14.6515 8.01392 14.2363 8.31538 14.0854 8.78017C13.9346 9.24488 14.093 9.73256 14.4882 10.0196C14.4882 10.0196 14.4882 10.0196 14.4882 10.0196L15.9404 11.0747C15.9404 11.0747 15.9404 11.0748 15.9405 11.0748L16.9551 7.99957ZM21.1887 11.0748L22.641 10.0196C23.0362 9.73251 23.1947 9.24469 23.0437 8.77995L21.1887 11.0748ZM19.2162 12.1105L19.2162 12.1106L20.6686 13.1659L20.6687 13.166C20.6759 13.1712 20.6798 13.1723 20.681 13.1725L19.2162 12.1105ZM19.2162 12.1105C19.0215 11.9691 18.7931 11.8982 18.5645 11.8982C18.3362 11.8982 18.1076 11.9691 17.9129 12.1104L17.9128 12.1104L17.2865 12.5655C17.1994 12.3022 17.0342 12.0853 16.8189 11.938L16.9826 11.4344L16.9826 11.4344C17.1313 10.9762 16.9693 10.4779 16.5798 10.1949L16.521 10.2758L16.5798 10.1949L15.1273 9.13962L15.1272 9.13958C15.12 9.13433 15.1177 9.13092 15.1171 9.12987C15.1169 9.12868 15.1168 9.12451 15.1196 9.11589L15.0245 9.08504L15.1195 9.1161C15.1224 9.10741 15.1249 9.10409 15.1258 9.10322C15.1269 9.10269 15.1308 9.10128 15.1398 9.10128H16.9351C17.417 9.10128 17.8408 8.79312 17.9895 8.3351L18.5444 6.62777L18.5444 6.62773C18.5465 6.62126 18.5493 6.61859 18.5516 6.61705C18.5545 6.61508 18.559 6.61346 18.5645 6.61346C18.57 6.61346 18.5745 6.61508 18.5774 6.61705C18.5797 6.61859 18.5826 6.62126 18.5847 6.62773L18.5847 6.62777L19.1395 8.33495C19.2882 8.79319 19.7122 9.10135 20.194 9.10135H21.9893C21.9983 9.10135 22.0022 9.10277 22.0032 9.1033C22.0041 9.10416 22.0066 9.10742 22.0094 9.11595C22.0122 9.12465 22.0121 9.12886 22.0119 9.13006C22.0113 9.13114 22.009 9.13455 22.0018 9.13977L22.0017 9.13983L20.5493 10.195C20.1594 10.4781 19.9976 10.9766 20.1465 11.4345C20.1465 11.4345 20.1465 11.4345 20.1465 11.4345L20.7012 13.142L19.2162 12.1105ZM16.2548 12.91L16.3502 12.88L15.6962 12.5856C15.6962 12.5856 15.6963 12.5856 15.6963 12.5856C15.7959 12.7259 15.9563 12.8106 16.1284 12.814L16.1304 12.714L16.1283 12.814C16.1766 12.815 16.2032 12.8323 16.22 12.8496C16.2391 12.8693 16.2498 12.8939 16.2548 12.91ZM20.7037 13.1561C20.7042 13.1546 20.7039 13.1583 20.6936 13.1659L20.7012 13.142C20.7052 13.1543 20.7032 13.1576 20.7037 13.1561Z" fill="#8C8C8C" stroke="#8C8C8C" stroke-width="0.2"/>
<path d="M2.66737 14.0449L2.66732 14.0449C2.27219 13.7579 2.11344 13.27 2.26437 12.8052L2.26438 12.8052L2.81916 11.0978L2.81919 11.0977C2.82209 11.0889 2.81907 11.0796 2.8115 11.0741L2.81144 11.074L1.35902 10.0187C1.35901 10.0187 1.35901 10.0187 1.35901 10.0187C0.963865 9.73168 0.805359 9.24386 0.956345 8.77913L2.66737 14.0449ZM2.66737 14.0449C2.86429 14.1878 3.091 14.2601 3.31887 14.2601C3.54673 14.2601 3.77365 14.1878 3.9706 14.0448L3.97064 14.0448L5.4232 12.9897L5.42332 12.9896C5.43069 12.9842 5.44059 12.9842 5.44796 12.9896L5.44807 12.9897L6.90041 14.0448C6.90042 14.0448 6.90042 14.0448 6.90043 14.0448C7.19686 14.2603 7.56468 14.3168 7.90794 14.1989L7.90804 14.1989C8.09967 14.1328 8.23878 13.9656 8.26872 13.7651C8.26872 13.7651 8.26872 13.7651 8.26873 13.765L8.16982 13.7503L2.66737 14.0449ZM3.82616 7.99851L3.82623 7.99829L4.38101 6.29107L4.38101 6.29106C4.53208 5.82633 4.94702 5.52485 5.43557 5.52485C5.92414 5.52485 6.339 5.82634 6.49007 6.29106L6.49007 6.29108L7.04478 7.99843L7.04483 7.99857C7.04764 8.00727 7.05551 8.01309 7.06493 8.01309H8.86023C9.34876 8.01309 9.76386 8.31456 9.9148 8.77933L9.9148 8.77935C10.0657 9.24408 9.90713 9.73176 9.51179 10.0189C9.51179 10.0189 9.51179 10.0189 9.51178 10.0189L8.0596 11.0741L3.82616 7.99851ZM3.82616 7.99851C3.82331 8.00733 3.81545 8.01309 3.80608 8.01309H2.01078C1.52226 8.01309 1.10722 8.31447 0.956351 8.77911L3.82616 7.99851ZM8.0518 11.0976L8.05185 11.0978L8.37798 12.1016C8.43112 12.2651 8.40371 12.4444 8.30387 12.5847C8.30387 12.5847 8.30386 12.5847 8.30386 12.5847L8.22237 12.5268L8.0518 11.0976ZM8.0518 11.0976C8.04899 11.089 8.05182 11.0797 8.05957 11.0741L8.0518 11.0976ZM6.71367 12.5649L6.08728 12.1098L6.08726 12.1098C5.69766 11.8268 5.17369 11.8264 4.78391 12.1098L3.33125 13.1649L3.33103 13.1651C3.32079 13.1726 3.31722 13.1716 3.31893 13.1716C3.3206 13.1716 3.31685 13.1725 3.3063 13.1649L3.2476 13.2459L3.30629 13.1649C3.29586 13.1573 3.29564 13.1536 3.29616 13.1552C3.29625 13.1554 3.29626 13.1556 3.29625 13.1556C3.29619 13.1555 3.29529 13.1515 3.29866 13.1411L6.71367 12.5649ZM6.71367 12.5649C6.80072 12.3014 6.96598 12.0846 7.18118 11.9373L7.0175 11.4339L7.0175 11.4339C6.86861 10.9758 7.03067 10.4775 7.42029 10.1944L7.42029 10.1944L8.87272 9.13908L8.87281 9.13902C8.88015 9.13369 8.88248 9.13023 8.88304 9.12917C8.88321 9.128 8.88337 9.12384 8.88057 9.11524L8.97565 9.08437L8.88063 9.11541C8.87658 9.10303 8.87302 9.10157 8.87435 9.10254C8.87568 9.1035 8.87323 9.10059 8.8603 9.10059H7.065C6.58344 9.10059 6.15953 8.79259 6.01051 8.33461L6.0105 8.33457L5.45578 6.62707L5.45577 6.62704C5.45368 6.62058 5.45083 6.6179 5.44857 6.61637C5.44566 6.61439 5.44116 6.61277 5.43564 6.61277C5.43012 6.61277 5.42562 6.61439 5.42271 6.61637C5.42045 6.6179 5.41761 6.62058 5.41551 6.62704L5.41549 6.62708L4.86065 8.33444L4.86064 8.33446C4.71163 8.79257 4.28772 9.10066 3.80615 9.10066H2.01078H2.00619M6.71367 12.5649L2.00619 9.10066M2.00619 9.10066H1.94589L1.99057 9.11517C1.98776 9.12385 1.98793 9.12803 1.98809 9.1292C1.98865 9.13025 1.99096 9.13369 1.99826 9.13899L1.99828 9.13901L3.45071 10.1943L3.45072 10.1943C3.84036 10.4774 4.00231 10.9757 3.85351 11.4339L3.85351 11.4339L3.29868 13.1411L1.9395 9.21991C1.89217 9.18554 1.87742 9.13985 1.89546 9.08429M2.00619 9.10066C2.00037 9.10103 1.99764 9.10205 1.99677 9.10247M1.99677 9.10247C1.99694 9.10229 1.99704 9.10222 1.99705 9.10222C1.99705 9.10223 1.99696 9.10232 1.99676 9.10247C1.99657 9.10261 1.99645 9.10267 1.99645 9.10266C1.99644 9.10266 1.99653 9.10259 1.99677 9.10247ZM1.99677 9.10247C1.99593 9.10333 1.99336 9.10662 1.99055 9.11524L1.94576 9.10066H1.91078V9.08927L1.89546 9.08429M1.89546 9.08429L1.91078 9.08926V9.05098C1.90464 9.06069 1.89953 9.07179 1.89546 9.08429Z" fill="#8C8C8C" stroke="#8C8C8C" stroke-width="0.2"/>
</svg>
