<svg width="24" height="24" viewBox="0 0 24 24" xmlns="http://www.w3.org/2000/svg">
  <g clip-path="url(#clip0)">
    <path
      d="M9.24976 22.75C8.83576 22.75 8.49976 22.414 8.49976 22V5.5C8.49976 5.086 8.83576 4.75 9.24976 4.75C9.66376 4.75 9.99976 5.086 9.99976 5.5V22C9.99976 22.414 9.66376 22.75 9.24976 22.75Z"
      fill="#8C8C8C"/>
    <path
      d="M6.24999 14H3.75C3.336 14 3 13.664 3 13.25C3 12.836 3.336 12.5 3.75 12.5H6.24999C6.66399 12.5 6.99999 12.836 6.99999 13.25C6.99999 13.664 6.66399 14 6.24999 14Z"
      fill="#8C8C8C"/>
    <path
      d="M6.5 10H3.75C3.336 10 3 9.664 3 9.25C3 8.836 3.336 8.5 3.75 8.5H6.5C6.914 8.5 7.25 8.836 7.25 9.25C7.25 9.664 6.914 10 6.5 10Z"
      fill="#8C8C8C"/>
    <path
      d="M6.24999 18H3.75C3.336 18 3 17.664 3 17.25C3 16.836 3.336 16.5 3.75 16.5H6.24999C6.66399 16.5 6.99999 16.836 6.99999 17.25C6.99999 17.664 6.66399 18 6.24999 18Z"
      fill="#8C8C8C"/>
    <path
      d="M21.25 23H2.75C1.233 23 0 21.767 0 20.25V3.75C0 2.233 1.233 1 2.75 1H21.25C22.767 1 24 2.233 24 3.75V20.25C24 21.767 22.767 23 21.25 23ZM2.75 2.5C2.061 2.5 1.5 3.061 1.5 3.75V20.25C1.5 20.939 2.061 21.5 2.75 21.5H21.25C21.939 21.5 22.5 20.939 22.5 20.25V3.75C22.5 3.061 21.939 2.5 21.25 2.5H2.75Z"
      fill="#8C8C8C"/>
    <path
      d="M23.25 6H0.75C0.336 6 0 5.664 0 5.25C0 4.836 0.336 4.5 0.75 4.5H23.25C23.664 4.5 24 4.836 24 5.25C24 5.664 23.664 6 23.25 6Z"
      fill="#8C8C8C"/>
  </g>
  <defs>
    <clipPath id="clip0">
      <rect width="24" height="24"/>
    </clipPath>
  </defs>
</svg>
