<svg  width="846.66" height="846.66" xmlns="http://www.w3.org/2000/svg" clip-rule="evenodd" xml:space="preserve" version="1.1">

 <g>
  <title>Layer 1</title>
  <g opacity="0.6" id="Layer_x0020_1">
   <path  id="svg_1" fill-rule="nonzero" fill="black" d="m138.64,212.28l121.09,0c10.3,-74.25 74.4,-130.24 149.55,-130.24l28.1,0c75.15,0 139.25,55.99 149.55,130.24l121.09,0c71.5,0 129.92,58.42 129.92,129.93l0,292.48c0,71.51 -58.42,129.93 -129.92,129.93l-569.38,0c-71.5,0 -129.92,-58.42 -129.92,-129.93l0,-292.48c0,-71.51 58.42,-129.93 129.92,-129.93zm99.12,350.99l-56.14,79.83c-15.64,22.24 -49.49,-1.58 -33.85,-23.81l56.15,-79.85c-18.78,-19.51 -30.33,-46.05 -30.33,-75.27c0,-59.96 48.61,-108.58 108.57,-108.58c59.96,0 108.57,48.62 108.57,108.58c0,59.95 -48.61,108.57 -108.57,108.57c-15.82,0 -30.84,-3.39 -44.4,-9.47zm44.4,-166.21c-37.06,0 -67.11,30.05 -67.11,67.11c0,37.06 30.05,67.1 67.11,67.1c37.06,0 67.11,-30.04 67.11,-67.1c0,-37.06 -30.05,-67.11 -67.11,-67.11zm182.11,266.16c-27.27,0 -27.27,-41.47 0,-41.47l192.07,0c27.27,0 27.27,41.47 0,41.47l-192.07,0zm0,-122.19c-27.27,0 -27.27,-41.47 0,-41.47l192.07,0c27.27,0 27.27,41.47 0,41.47l-192.07,0zm0,61.09c-27.27,0 -27.27,-41.46 0,-41.46l192.07,0c27.27,0 27.27,41.46 0,41.46l-192.07,0zm0,-122.19c-27.27,0 -27.27,-41.47 0,-41.47l192.07,0c27.27,0 27.27,41.47 0,41.47l-192.07,0zm0,-115.05c-27.27,0 -27.27,-41.46 0,-41.46l154.04,0c27.28,0 27.28,41.46 0,41.46l-154.04,0zm-162.51,-152.6l243.14,0c-9.92,-51.16 -55.22,-88.77 -107.52,-88.77l-28.1,0c-52.3,0 -97.6,37.61 -107.52,88.77zm406.26,41.46c-189.8,0 -379.58,0 -569.38,0c-48.6,0 -88.46,39.86 -88.46,88.47l0,292.48c0,48.61 39.85,88.46 88.46,88.46l569.38,0c48.6,0 88.46,-39.85 88.46,-88.46l0,-292.48c0,-48.61 -39.86,-88.47 -88.46,-88.47z" class="fil0"/>
  </g>
 </g>
</svg>